<svg xmlns="http://www.w3.org/2000/svg" version="1.1" xmlns:xlink="http://www.w3.org/1999/xlink" xmlns:svgjs="http://svgjs.com/svgjs" width="784" height="676"><svg width="784" height="676" viewBox="0 0 784 676" fill="none" xmlns="http://www.w3.org/2000/svg">
<g clip-path="url(#clip0_6_4)">
<path d="M745.115 578.236C815.178 475.601 788.204 336.434 684.861 266.851C611.996 217.795 517.062 215.36 441.744 260.241C461.712 138.123 378.338 22.9624 255.378 2.78333C168.851 -11.1333 81.6229 26.0937 32.2288 98.4601C-4.90438 152.735 -2.12399e-06 278.332 0.350311 279.376V675.652H584.672H583.971C649.48 667.998 708.332 632.511 745.115 578.236Z" fill="#D10A1C"></path>
<path d="M184.615 356.613L164.647 450.203H92.4826L119.807 322.17C120.858 316.951 118.756 311.732 112.45 311.732C109.998 311.384 107.196 312.428 105.794 314.516C98.7882 323.214 81.6229 318.691 89.6801 300.599C99.1385 282.507 115.954 272.07 143.278 272.07C166.749 272.07 177.609 284.595 186.366 303.034H188.468C205.283 286.335 225.251 269.635 250.824 269.635C268.34 269.635 290.059 276.593 296.365 299.903C312.479 284.595 326.491 269.635 349.962 269.635C371.332 269.635 396.904 276.245 390.949 318.691C366.077 334.695 346.81 363.224 346.459 394.884C346.459 420.978 358.37 439.417 376.937 449.159C367.478 452.29 357.669 454.03 347.51 453.682C310.377 453.682 292.861 426.197 300.919 392.797L312.479 344.784C315.281 332.955 319.485 315.559 305.473 315.559C296.365 315.559 290.059 324.953 284.454 351.743L264.136 450.551H191.971L213.691 344.784C216.143 332.955 220.697 315.559 206.685 315.559C196.525 315.212 191.271 325.997 184.615 356.613ZM446.649 308.949C469.769 308.949 497.444 319.387 497.444 346.872C497.094 387.578 442.795 394.884 418.974 402.19C422.127 413.672 429.483 417.499 438.942 417.499C448.4 417.499 463.814 411.584 477.476 402.886C493.24 392.449 508.304 382.011 513.559 371.574C514.96 367.051 516.011 362.528 516.361 358.005C517.062 354.874 515.66 351.395 511.807 351.395C501.998 351.395 506.903 325.997 531.424 325.997C555.946 325.997 565.755 343.393 561.201 364.963L554.895 395.58C553.494 403.234 550.692 414.367 559.449 414.367C565.755 414.367 569.258 407.757 573.462 387.926L586.073 328.084H632.315L614.799 410.192C614.098 413.324 615.149 416.803 619.353 416.803C622.856 416.803 625.659 414.367 626.009 410.54C626.71 405.322 637.92 403.234 637.92 412.628C637.92 431.763 622.155 441.853 599.385 441.853C584.322 441.853 577.315 433.851 572.061 422.022H571.01C560.15 432.807 547.539 443.592 531.424 443.592C519.864 443.592 506.552 440.461 505.151 422.717L485.183 436.286C467.317 448.463 446.298 454.378 424.929 453.682C387.796 453.682 359.071 432.807 359.071 394.536C359.071 348.264 404.611 308.949 446.649 308.949ZM419.324 377.141C425.98 375.401 432.636 372.966 438.942 369.834C445.248 366.355 449.802 361.484 450.152 354.526C450.502 347.568 447.349 342.697 441.744 342.697C430.534 342.697 422.477 359.397 419.324 377.141ZM472.572 511.784C472.222 519.438 474.674 526.744 479.228 532.659C471.521 551.098 456.107 564.667 433.337 564.667C424.929 564.319 417.222 561.188 411.267 555.273L401.809 597.371H360.822L383.943 489.865C384.643 487.082 383.242 484.646 380.44 483.951C380.089 483.951 379.739 483.951 379.389 483.603C377.287 483.951 375.185 483.951 373.083 483.951C371.682 483.603 370.631 482.559 369.93 481.167C366.077 473.513 375.886 459.944 397.255 460.988C407.764 461.684 413.719 465.859 416.522 473.861C423.178 465.859 432.987 460.988 443.496 460.988C461.012 460.988 475.725 468.642 482.03 483.603C476.075 492.301 472.572 502.042 472.572 511.784ZM442.095 497.171C442.095 492.648 441.394 485.69 435.789 485.69C429.483 485.69 424.579 494.04 422.477 503.782L419.324 518.046C418.273 523.613 415.821 541.009 424.929 541.009C437.19 541.009 442.095 507.261 442.095 497.171ZM643.174 482.559C643.525 490.561 637.569 497.519 629.512 497.867C628.811 497.867 628.461 497.867 627.76 497.867C624.958 497.867 622.506 497.171 620.054 496.128L619.353 495.78C616.55 494.04 615.5 491.953 611.296 491.953C606.391 491.953 604.99 507.261 603.939 511.436L593.78 559.796H554.545L569.258 490.213C569.609 487.43 568.558 484.298 565.405 484.298C563.653 484.646 562.252 484.994 560.851 486.038C558.749 507.609 528.972 512.132 515.31 516.307C516.361 521.873 521.265 525.7 526.87 525.353C534.928 524.657 542.985 521.525 549.29 516.655L559.099 509.696L553.144 536.486C542.985 543.444 531.074 546.575 518.813 546.227C497.444 546.227 480.629 534.398 480.629 512.132C480.629 485.342 506.903 462.032 531.424 462.032C540.533 462.032 550.692 464.815 556.647 471.426C561.551 465.511 569.258 462.728 580.819 462.728C593.08 462.728 596.933 468.642 600.436 479.428H601.837C606.041 470.73 613.047 463.424 624.958 463.424C630.213 463.424 635.117 465.163 638.62 468.642C641.773 472.121 643.525 477.34 643.174 482.559ZM533.176 488.126C533.176 484.299 531.424 481.167 528.272 481.167C521.966 481.167 517.412 490.909 515.66 501.346C519.514 500.303 523.367 498.911 526.87 497.171C530.724 495.432 533.176 492.301 533.176 488.126ZM370.981 524.309C371.332 521.873 369.23 519.786 367.128 519.438C365.026 519.09 362.924 520.482 362.574 522.569C362.574 525.005 360.122 527.092 357.669 527.092C354.516 527.092 353.816 524.657 354.166 522.221L366.777 463.076H333.498L324.39 506.565C321.237 520.83 318.785 525.7 314.231 525.7C307.925 525.7 310.027 517.698 311.078 512.132L315.632 489.865C318.785 474.209 311.428 461.684 293.912 461.684C283.753 461.684 276.397 464.467 271.843 469.686C271.142 470.73 270.441 471.426 269.741 472.469C262.735 461.684 246.27 457.857 233.659 457.857C207.035 457.857 181.112 472.817 180.761 501.694C180.411 534.398 222.449 539.965 222.098 555.969C222.449 560.144 219.296 563.623 215.092 563.623C214.742 563.623 214.391 563.623 213.691 563.623C210.888 563.623 208.436 562.927 205.984 561.536C204.933 550.402 196.175 544.14 185.315 544.14C177.258 544.488 170.602 550.75 170.252 559.1C169.902 579.627 195.475 585.89 211.939 585.89C239.964 585.89 267.989 575.8 268.34 543.444C268.69 509.348 223.149 498.563 223.5 487.082C223.149 482.907 226.302 479.08 230.856 478.732C231.206 478.732 231.557 478.732 231.907 478.732C235.41 478.732 238.913 479.776 241.716 481.515C242.767 490.561 248.372 498.563 258.18 498.563C265.887 498.911 272.193 492.996 272.543 485.69C273.244 482.211 273.945 479.08 278.849 479.428C281.651 479.428 282.702 481.863 282.352 484.298L275.346 518.394C270.091 542.748 282.702 546.227 293.212 546.227C305.122 546.227 314.231 538.573 321.937 530.919H322.988C326.842 539.269 332.096 545.184 342.956 545.184C359.421 545.532 370.981 538.225 370.981 524.309Z" fill="white"></path>
</g>
<defs>
<clipPath id="SvgjsClipPath1000">
<rect width="784" height="676" fill="white"></rect>
</clipPath>
</defs>
</svg><style>@media (prefers-color-scheme: light) { :root { filter: none; } }
</style></svg>